HIERARCHY
ROOT SpineBase
{
  OFFSET 0.000000 0.000000 0.000000
  CHANNELS 6 Xposition Yposition Zposition Zrotation Xrotation Yrotation
  JOINT SpineMid
  {
    OFFSET -0.000000 26.732196 0.000000
    CHANNELS 3 Zrotation Xrotation Yrotation
    JOINT SpineShoulder
    {
      OFFSET 0.120539 20.022406 -0.582734
      CHANNELS 3 Zrotation Xrotation Yrotation
      JOINT Neck
      {
        OFFSET 0.048509 6.660719 -0.451254
        CHANNELS 3 Zrotation Xrotation Yrotation
        JOINT Head
        {
          OFFSET 3.359991 11.572544 0.317501
          CHANNELS 3 Zrotation Xrotation Yrotation
          End Site
          {
            OFFSET 0 0 0
          }
        }
      }
      JOINT ShoulderLeft
      {
        OFFSET -11.252436 -2.676949 -7.097030
        CHANNELS 3 Zrotation Xrotation Yrotation
        JOINT ElbowLeft
        {
          OFFSET -6.714559 -15.602157 -2.325327
          CHANNELS 3 Zrotation Xrotation Yrotation
          JOINT WristLeft
          {
            OFFSET 18.379102 -4.604360 -8.518970
            CHANNELS 3 Zrotation Xrotation Yrotation
            JOINT HandLeft
            {
              OFFSET 4.114430 0.094917 0.188011
              CHANNELS 3 Zrotation Xrotation Yrotation
              JOINT HandTipLeft
              {
                OFFSET 8.362611 0.672304 -0.034365
                CHANNELS 3 Zrotation Xrotation Yrotation
                End Site
                {
                  OFFSET 0 0 0
                }
              }
              JOINT ThumbLeft
              {
                OFFSET 0.287089 -4.532436 6.068198
                CHANNELS 3 Zrotation Xrotation Yrotation
                End Site
                {
                  OFFSET 0 0 0
                }
              }
            }
          }
        }
      }
      JOINT ShoulderRight
      {
        OFFSET 12.224583 -3.008515 4.415788
        CHANNELS 3 Zrotation Xrotation Yrotation
        JOINT ElbowRight
        {
          OFFSET 2.870395 -20.839261 6.021607
          CHANNELS 3 Zrotation Xrotation Yrotation
          JOINT WristRight
          {
            OFFSET 0.957335 -11.717083 -13.761899
            CHANNELS 3 Zrotation Xrotation Yrotation
            JOINT HandRight
            {
              OFFSET -3.630886 -5.114020 1.634642
              CHANNELS 3 Zrotation Xrotation Yrotation
              JOINT HandTipRight
              {
                OFFSET -1.131739 -2.993630 -2.666702
                CHANNELS 3 Zrotation Xrotation Yrotation
                End Site
                {
                  OFFSET 0 0 0
                }
              }
              JOINT ThumbRight
              {
                OFFSET -1.152677 1.627648 -3.606605
                CHANNELS 3 Zrotation Xrotation Yrotation
                End Site
                {
                  OFFSET 0 0 0
                }
              }
            }
          }
        }
      }
    }
  }
  JOINT HipLeft
  {
    OFFSET -5.159509 1.317160 -5.238716
    CHANNELS 3 Zrotation Xrotation Yrotation
    JOINT KneeLeft
    {
      OFFSET -4.642171 -27.216978 -2.220488
      CHANNELS 3 Zrotation Xrotation Yrotation
      JOINT AnkleLeft
      {
        OFFSET -0.044352 -36.088744 9.202263
        CHANNELS 3 Zrotation Xrotation Yrotation
        JOINT FootLeft
        {
          OFFSET 3.453569 -2.843651 -9.757867
          CHANNELS 3 Zrotation Xrotation Yrotation
          End Site
          {
            OFFSET 0 0 0
          }
        }
      }
    }
  }
  JOINT HipRight
  {
    OFFSET 5.004862 0.395149 -0.953922
    CHANNELS 3 Zrotation Xrotation Yrotation
    JOINT KneeRight
    {
      OFFSET -1.289590 -29.752254 2.059959
      CHANNELS 3 Zrotation Xrotation Yrotation
      JOINT AnkleRight
      {
        OFFSET -4.332290 -34.081156 4.814547
        CHANNELS 3 Zrotation Xrotation Yrotation
        JOINT FootRight
        {
          OFFSET -3.229364 -6.460521 -4.044390
          CHANNELS 3 Zrotation Xrotation Yrotation
          End Site
          {
            OFFSET 0 0 0
          }
        }
      }
    }
  }
}
MOTION
Frames: 14
Frame Time: 0.033333
14.987991 69.454478 359.019264 -1.045106 -0.012336 -23.831620 0.384994 -0.171666 23.808976 0.173727 -0.284211 -0.017155 1.164882 -1.040467 0.498736 0.000000 0.000000 0.000000 13.578762 2.067336 -2.982205 1.542324 11.334800 15.106842 11.772588 -4.545305 41.052824 12.795048 -9.514602 -4.413582 0.000000 0.000000 0.000000 0.000000 0.000000 0.000000 -5.547268 15.520545 1.252773 57.287982 26.723725 -45.238750 52.047204 38.897782 -67.407712 20.682527 -36.273889 37.299498 0.000000 0.000000 0.000000 0.000000 0.000000 0.000000 2.990022 -2.187887 24.344753 -4.728087 4.185681 -1.218163 -19.285603 -42.208821 -37.980305 0.000000 0.000000 0.000000 0.299737 1.027146 23.776609 -3.585894 -0.852051 -0.544048 38.067533 29.631268 -43.245497 0.000000 0.000000 0.000000
15.000660 69.468449 359.034678 -1.025969 -0.076926 -24.431828 0.902307 0.494361 24.427246 -0.528870 -0.661010 -0.034053 0.847295 -1.203931 0.563051 0.000000 0.000000 0.000000 13.879580 2.313952 -3.181222 2.110743 11.732681 15.127301 6.257142 -4.962662 44.917524 15.653192 -14.357914 -9.809081 0.000000 0.000000 0.000000 0.000000 0.000000 0.000000 -5.910744 15.556914 1.204686 56.910442 26.978610 -44.574617 52.952834 39.058549 -66.859717 22.713057 -34.744899 37.707398 0.000000 0.000000 0.000000 0.000000 0.000000 0.000000 2.954645 -2.097362 24.940051 -4.443163 4.066506 -1.168249 -11.818578 -35.624624 -27.153253 0.000000 0.000000 0.000000 0.239686 1.178272 24.375844 -3.006960 -1.440473 -0.403866 37.445469 29.804608 -43.403852 0.000000 0.000000 0.000000
15.021608 69.503462 359.009707 -1.003433 -0.135209 -25.360634 0.848853 0.551931 25.355361 -0.494768 -0.697042 -0.031439 0.672041 -1.459521 0.648658 0.000000 0.000000 0.000000 13.548526 2.468145 -3.200642 2.092993 11.411455 15.171777 3.457357 -4.452244 51.032973 14.090817 -18.160597 -18.145316 0.000000 0.000000 0.000000 0.000000 0.000000 0.000000 -6.185920 15.335997 1.115275 56.476265 27.587283 -44.033858 51.869993 38.646020 -66.650201 20.032999 -36.366895 36.479084 0.000000 0.000000 0.000000 0.000000 0.000000 0.000000 2.828185 -2.024285 25.868287 -4.120364 4.091047 -1.135064 -7.780877 -30.424301 -20.946531 0.000000 0.000000 0.000000 0.151120 1.316126 25.302835 -2.520912 -1.750537 -0.302333 33.832466 28.977630 -39.896310 0.000000 0.000000 0.000000
15.038761 69.543677 358.976094 -0.985242 -0.171006 -26.226224 0.808284 0.588763 26.220600 -0.494193 -0.670921 -0.031475 0.690061 -1.645899 0.695556 0.000000 0.000000 0.000000 12.876919 2.497095 -3.091303 1.392066 10.485681 15.287059 6.755841 -3.656136 49.928054 12.847321 -16.534226 -17.130363 0.000000 0.000000 0.000000 0.000000 0.000000 0.000000 -6.276320 14.781770 0.986202 55.881412 28.734703 -43.619781 51.655979 38.099909 -66.761229 20.011235 -37.075476 37.823290 0.000000 0.000000 0.000000 0.000000 0.000000 0.000000 2.554471 -1.912900 26.719015 -3.758066 3.778032 -1.119075 -5.487061 -26.514604 -17.956813 0.000000 0.000000 0.000000 0.124921 1.419776 26.170133 -2.168483 -2.195053 -0.198309 32.201995 28.555088 -38.504912 0.000000 0.000000 0.000000
15.055793 69.583652 358.930760 -0.957905 -0.231401 -26.570248 0.753276 0.635391 26.564137 -0.480878 -0.699317 -0.030407 0.663293 -1.419275 0.636559 0.000000 0.000000 0.000000 12.120066 2.105546 -2.719605 0.010589 9.481899 15.106086 15.764192 -1.138316 49.138937 5.527889 -11.338343 -17.848203 0.000000 0.000000 0.000000 0.000000 0.000000 0.000000 -6.323808 14.284635 0.871808 55.571880 29.862354 -43.522424 51.444754 37.462712 -67.594437 20.521402 -36.885983 39.646148 0.000000 0.000000 0.000000 0.000000 0.000000 0.000000 2.495563 -1.973275 27.084925 -3.430437 3.756509 -1.090223 -5.846627 -26.534036 -18.337318 0.000000 0.000000 0.000000 0.135665 1.454442 26.518770 -2.286051 -2.269769 -0.200829 32.668578 28.602851 -38.927404 0.000000 0.000000 0.000000
15.071080 69.602523 358.919413 -0.948476 -0.285325 -26.616667 0.720178 0.679983 26.610032 -0.451865 -0.766845 -0.028039 0.648660 -0.957377 0.518108 0.000000 0.000000 0.000000 11.286966 1.495396 -2.212534 -1.727430 8.454837 14.746751 28.491545 1.665124 45.954069 -4.213022 -3.215230 -13.930510 0.000000 0.000000 0.000000 0.000000 0.000000 0.000000 -6.404147 14.099032 0.815786 55.102692 30.688657 -43.133813 53.975650 37.446750 -67.954949 21.018089 -39.438653 41.285119 0.000000 0.000000 0.000000 0.000000 0.000000 0.000000 2.606291 -2.132602 27.173963 -3.317655 4.037178 -1.086811 -7.966353 -29.580503 -21.697636 0.000000 0.000000 0.000000 0.115591 1.515144 26.565968 -2.325407 -2.369552 -0.196091 34.906588 29.171827 -41.442108 0.000000 0.000000 0.000000
15.066156 69.611528 358.904442 -0.956499 -0.341225 -26.431374 0.367012 -0.010681 26.410839 0.188017 -0.310651 -0.010839 0.701045 -0.648090 0.441661 0.000000 0.000000 0.000000 10.269428 1.025288 -1.755616 -3.454693 7.326499 14.792481 39.787019 3.462898 42.708762 -13.380241 2.867657 -11.440186 0.000000 0.000000 0.000000 0.000000 0.000000 0.000000 -6.534994 14.458316 0.866055 55.533527 30.131581 -43.285550 48.126306 36.454767 -69.607323 22.599205 -33.781865 43.790360 0.000000 0.000000 0.000000 0.000000 0.000000 0.000000 2.561451 -2.113425 26.991298 -3.292948 4.087348 -1.092045 -17.457891 -39.518477 -35.588407 0.000000 0.000000 0.000000 0.133013 1.557389 26.382345 -2.853019 -2.086412 -0.309683 39.186046 29.693361 -45.535849 0.000000 0.000000 0.000000
15.056495 69.609050 358.912259 -0.967989 -0.405570 -25.981685 0.359916 -0.001765 25.960402 0.178620 -0.297404 -0.012037 0.876156 -0.314571 0.350857 0.000000 0.000000 0.000000 9.224224 0.565542 -1.310376 -5.045271 6.304056 15.046311 51.717979 2.221057 34.690141 -21.696825 7.890984 -3.732780 0.000000 0.000000 0.000000 0.000000 0.000000 0.000000 -6.653624 14.985133 0.954641 56.134173 29.169322 -43.491993 45.230094 36.251638 -70.707428 22.453646 -32.655596 44.986810 0.000000 0.000000 0.000000 0.000000 0.000000 0.000000 2.507879 -2.030593 26.530396 -3.450515 4.092650 -1.115421 -20.818006 -41.921096 -40.754312 0.000000 0.000000 0.000000 0.144602 1.559563 25.933536 -2.777991 -2.118667 -0.288221 35.762320 29.522731 -41.996735 0.000000 0.000000 0.000000
15.036209 69.597305 358.937427 -0.988119 -0.468936 -25.199174 0.351745 0.008367 25.176853 0.169577 -0.273073 -0.013577 1.106641 0.044666 0.245982 0.000000 0.000000 0.000000 8.363567 0.079074 -0.897387 -6.410450 5.599659 15.479091 59.435286 0.380163 29.376191 -27.750510 10.382344 1.759331 0.000000 0.000000 0.000000 0.000000 0.000000 0.000000 -6.842225 15.672433 1.070305 57.002964 27.698032 -43.770210 42.542475 36.411050 -71.188836 25.578080 -27.283745 46.668180 0.000000 0.000000 0.000000 0.000000 0.000000 0.000000 2.405042 -1.854046 25.714847 -3.726523 3.976697 -1.148192 -13.906760 -36.842884 -33.028616 0.000000 0.000000 0.000000 0.187009 1.606725 25.152268 -2.992263 -1.992894 -0.331673 36.855627 29.979631 -43.124829 0.000000 0.000000 0.000000
15.020408 69.601626 358.929240 -0.992218 -0.496287 -24.873905 0.348225 0.026401 24.851420 0.161143 -0.242943 -0.014167 1.233373 0.316395 0.155325 0.000000 0.000000 0.000000 7.633747 -0.206012 -0.638527 -7.166835 5.070362 15.839416 62.700909 -0.911911 26.694858 -30.521130 11.380293 5.462442 0.000000 0.000000 0.000000 0.000000 0.000000 0.000000 -6.960064 16.318484 1.196367 57.183696 26.964066 -43.502157 39.002271 35.878310 -72.962446 22.783940 -24.558806 44.972572 0.000000 0.000000 0.000000 0.000000 0.000000 0.000000 2.249370 -1.733052 25.365601 -3.928039 3.975379 -1.189795 -15.024986 -38.301901 -34.431146 0.000000 0.000000 0.000000 0.203751 1.629934 24.827674 -3.360157 -1.708562 -0.417935 38.941086 30.360102 -45.058104 0.000000 0.000000 0.000000
15.001423 69.602190 358.924633 -1.013594 -0.502653 -24.609389 0.352613 0.054721 24.586517 0.142254 -0.210048 -0.015677 1.355277 0.486351 0.088302 0.000000 0.000000 0.000000 7.315605 -0.308516 -0.549208 -7.256589 4.987958 16.265506 61.980936 -2.921801 23.830357 -29.049683 11.075074 9.215476 0.000000 0.000000 0.000000 0.000000 0.000000 0.000000 -6.915056 16.672615 1.283956 57.429864 27.901804 -43.613402 41.920831 35.719674 -70.774593 23.980273 -23.682028 43.090064 0.000000 0.000000 0.000000 0.000000 0.000000 0.000000 2.248735 -1.676698 25.089785 -4.392703 4.278883 -1.259813 -19.504217 -42.381639 -40.176728 0.000000 0.000000 0.000000 0.246351 1.644288 24.563885 -3.444321 -1.662821 -0.433781 41.631586 30.809679 -48.022726 0.000000 0.000000 0.000000
14.982683 69.605194 358.915003 -1.046437 -0.445916 -24.445340 0.357321 0.093712 24.422193 0.124402 -0.167200 -0.017438 1.494321 0.307856 0.103057 0.000000 0.000000 0.000000 7.675218 0.126147 -0.868865 -6.625648 5.138160 16.870633 61.286978 -5.308400 20.908231 -30.165369 10.994857 11.912441 0.000000 0.000000 0.000000 0.000000 0.000000 0.000000 -6.604709 16.614078 1.325345 57.154953 28.457723 -43.638846 42.655630 35.199318 -72.542306 21.718160 -23.925593 42.138218 0.000000 0.000000 0.000000 0.000000 0.000000 0.000000 2.245822 -1.618093 24.905904 -4.170195 4.276871 -1.202983 -13.818162 -37.917212 -32.945772 0.000000 0.000000 0.000000 0.295881 1.593687 24.399252 -3.194470 -1.604405 -0.399212 44.537480 31.104992 -51.553416 0.000000 0.000000 0.000000
14.982959 69.604076 358.922607 -1.054623 -0.393093 -24.055380 0.802875 0.788775 24.046235 -0.000000 0.000000 0.000000 0.974977 -0.341429 0.075479 0.000000 0.000000 0.000000 7.108041 -0.524950 -0.824807 -6.189201 5.302808 16.545898 58.635275 -3.375618 24.171731 -30.134827 10.514356 6.203296 0.000000 0.000000 0.000000 0.000000 0.000000 0.000000 -6.752747 15.763436 1.226441 56.329036 28.033738 -43.333171 39.469306 34.616878 -77.393417 18.718331 -21.839389 43.197155 0.000000 0.000000 0.000000 0.000000 0.000000 0.000000 2.116366 -1.525770 24.486622 -4.226456 4.169986 -1.212346 -12.831476 -37.125601 -32.781328 0.000000 0.000000 0.000000 0.327435 1.578031 24.008610 -3.144799 -1.540027 -0.400639 41.741410 30.990055 -48.559901 0.000000 0.000000 0.000000
14.993180 69.610186 358.924730 -1.048316 -0.290181 -23.850084 0.841522 0.689230 23.842368 -0.000000 0.000000 0.000000 1.028706 -0.432206 0.101419 0.000000 0.000000 0.000000 7.022571 -0.172650 -0.989377 -6.142837 5.173778 17.515772 52.458896 -4.297920 24.085160 -26.786663 9.726164 7.789904 0.000000 0.000000 0.000000 0.000000 0.000000 0.000000 -6.348049 15.344769 1.202115 54.981322 28.943170 -42.704379 44.295015 35.169375 -74.093369 20.314554 -26.901582 42.734798 0.000000 0.000000 0.000000 0.000000 0.000000 0.000000 1.948115 -1.476359 24.253791 -4.117736 3.981331 -1.203316 -13.342914 -37.519319 -34.312595 0.000000 0.000000 0.000000 0.332289 1.561499 23.801013 -3.193958 -1.621657 -0.410588 41.679025 31.123232 -48.503291 0.000000 0.000000 0.000000
